# Blender 4.3.2
# www.blender.org
mtllib button.mtl
o Cube
v 1.000000 -0.200000 0.490000
v 0.700000 -0.200000 0.700000
v 0.794868 -0.200000 0.556408
v 0.700000 -0.200000 -0.700000
v 1.000000 -0.200000 -0.490000
v 0.794868 -0.200000 -0.556408
v -0.700000 -0.200000 0.700000
v -1.000000 -0.200000 0.490000
v -0.794868 -0.200000 0.556408
v -1.000000 -0.200000 -0.490000
v -0.700000 -0.200000 -0.700000
v -0.794868 -0.200000 -0.556408
v 0.646214 0.200000 0.600000
v 0.700000 0.100000 0.700000
v 0.662835 0.195106 0.630902
v 0.677829 0.180902 0.658779
v 0.689728 0.158779 0.680902
v 0.697367 0.130902 0.695106
v 0.900000 0.200000 0.417264
v 1.000000 0.100000 0.490000
v 0.930902 0.195106 0.439740
v 0.958779 0.180902 0.460017
v 0.980902 0.158779 0.476109
v 0.995106 0.130902 0.486440
v 0.730743 0.200000 0.472058
v 0.794868 0.100000 0.556408
v 0.750559 0.195106 0.498123
v 0.768435 0.180902 0.521638
v 0.782621 0.158779 0.540298
v 0.791730 0.130902 0.552279
v 0.900000 0.200000 -0.417264
v 1.000000 0.100000 -0.490000
v 0.930902 0.195106 -0.439740
v 0.958779 0.180902 -0.460017
v 0.980902 0.158779 -0.476109
v 0.995106 0.130902 -0.486440
v 0.646214 0.200000 -0.600000
v 0.700000 0.100000 -0.700000
v 0.662835 0.195106 -0.630902
v 0.677829 0.180902 -0.658779
v 0.689728 0.158779 -0.680902
v 0.697367 0.130902 -0.695106
v 0.730743 0.200000 -0.472058
v 0.794868 0.100000 -0.556408
v 0.750559 0.195106 -0.498123
v 0.768435 0.180902 -0.521638
v 0.782622 0.158779 -0.540298
v 0.791730 0.130902 -0.552280
v -0.900000 0.200000 0.417264
v -1.000000 0.100000 0.490000
v -0.930902 0.195106 0.439740
v -0.958779 0.180902 0.460017
v -0.980902 0.158779 0.476109
v -0.995106 0.130902 0.486440
v -0.646214 0.200000 0.600000
v -0.700000 0.100000 0.700000
v -0.662835 0.195106 0.630902
v -0.677829 0.180902 0.658779
v -0.689728 0.158779 0.680902
v -0.697367 0.130902 0.695106
v -0.730743 0.200000 0.472058
v -0.794868 0.100000 0.556408
v -0.750559 0.195106 0.498123
v -0.768435 0.180902 0.521638
v -0.782622 0.158779 0.540298
v -0.791730 0.130902 0.552280
v -0.646214 0.200000 -0.600000
v -0.700000 0.100000 -0.700000
v -0.662835 0.195106 -0.630902
v -0.677829 0.180902 -0.658779
v -0.689728 0.158779 -0.680902
v -0.697367 0.130902 -0.695106
v -0.900000 0.200000 -0.417264
v -1.000000 0.100000 -0.490000
v -0.930902 0.195106 -0.439740
v -0.958779 0.180902 -0.460017
v -0.980902 0.158779 -0.476109
v -0.995106 0.130902 -0.486440
v -0.730743 0.200000 -0.472058
v -0.794868 0.100000 -0.556408
v -0.750559 0.195106 -0.498123
v -0.768435 0.180902 -0.521638
v -0.782621 0.158779 -0.540298
v -0.791730 0.130902 -0.552279
vn -0.8343 -0.0000 0.5512
vn -0.0000 -1.0000 -0.0000
vn -0.0000 -0.0000 1.0000
vn 1.0000 -0.0000 -0.0000
vn 0.8343 -0.0000 0.5512
vn 0.8343 -0.0000 -0.5512
vn -0.0000 -0.0000 -1.0000
vn 0.3080 -0.0000 -0.9514
vn -0.8343 -0.0000 -0.5512
vn -1.0000 -0.0000 -0.0000
vn 0.3080 -0.0000 0.9514
vn -0.3080 -0.0000 -0.9514
vn -0.3080 -0.0000 0.9514
vn 0.1305 0.9877 0.0862
vn 0.3788 0.8910 0.2503
vn 0.5900 0.7071 0.3898
vn 0.7434 0.4540 0.4912
vn 0.8241 0.1564 0.5445
vn 0.0482 0.9877 0.1488
vn 0.1398 0.8910 0.4319
vn 0.2178 0.7071 0.6727
vn 0.2744 0.4540 0.8477
vn 0.3042 0.1564 0.9397
vn 0.0482 0.9877 -0.1488
vn 0.1398 0.8910 -0.4319
vn 0.2178 0.7071 -0.6727
vn 0.2744 0.4540 -0.8477
vn 0.3042 0.1564 -0.9397
vn 0.1305 0.9877 -0.0862
vn 0.3788 0.8910 -0.2503
vn 0.5900 0.7071 -0.3898
vn 0.7434 0.4540 -0.4912
vn 0.8241 0.1564 -0.5445
vn 0.1564 0.9877 -0.0000
vn 0.4540 0.8910 -0.0000
vn 0.7071 0.7071 -0.0000
vn 0.8910 0.4540 -0.0000
vn 0.9877 0.1564 -0.0000
vn -0.1305 0.9877 0.0862
vn -0.3788 0.8910 0.2503
vn -0.5900 0.7071 0.3898
vn -0.7434 0.4540 0.4912
vn -0.8241 0.1564 0.5445
vn -0.0482 0.9877 0.1488
vn -0.1398 0.8910 0.4319
vn -0.2178 0.7071 0.6727
vn -0.2744 0.4540 0.8477
vn -0.3042 0.1564 0.9397
vn -0.0000 0.9877 0.1564
vn -0.0000 0.8910 0.4540
vn -0.0000 0.7071 0.7071
vn -0.0000 0.4540 0.8910
vn -0.0000 0.1564 0.9877
vn -0.1305 0.9877 -0.0862
vn -0.3788 0.8910 -0.2503
vn -0.5900 0.7071 -0.3898
vn -0.7434 0.4540 -0.4912
vn -0.8241 0.1564 -0.5445
vn -0.0482 0.9877 -0.1488
vn -0.1398 0.8910 -0.4319
vn -0.2178 0.7071 -0.6727
vn -0.2744 0.4540 -0.8477
vn -0.3042 0.1564 -0.9397
vn -0.0000 0.9877 -0.1564
vn -0.0000 0.8910 -0.4540
vn -0.0000 0.7071 -0.7071
vn -0.0000 0.4540 -0.8910
vn -0.0000 0.1564 -0.9877
vn -0.9877 0.1564 -0.0000
vn -0.8910 0.4540 -0.0000
vn -0.7071 0.7071 -0.0000
vn -0.4540 0.8910 -0.0000
vn -0.1564 0.9877 -0.0000
vn -0.0000 1.0000 -0.0000
vt 0.375000 0.962500
vt 0.562500 0.962500
vt 0.562500 1.000000
vt 0.375000 1.000000
vt 0.125000 0.537500
vt 0.150641 0.525642
vt 0.162500 0.500000
vt 0.337500 0.500000
vt 0.349358 0.525641
vt 0.375000 0.537500
vt 0.375000 0.712500
vt 0.349359 0.724359
vt 0.337500 0.750000
vt 0.162500 0.750000
vt 0.150641 0.724359
vt 0.125000 0.712500
vt 0.375000 0.787500
vt 0.562500 0.787500
vt 0.562500 0.537500
vt 0.562500 0.712500
vt 0.375000 0.712500
vt 0.375000 0.750000
vt 0.562500 0.750000
vt 0.562500 0.500000
vt 0.375000 0.500000
vt 0.375000 0.462500
vt 0.562500 0.462500
vt 0.375000 0.287500
vt 0.562500 0.287500
vt 0.375000 0.250000
vt 0.562500 0.250000
vt 0.375000 0.037500
vt 0.562500 0.037500
vt 0.562500 0.212500
vt 0.375000 0.212500
vt 0.375000 0.000000
vt 0.562500 0.000000
vt 0.658657 0.709296
vt 0.669223 0.732143
vt 0.667146 0.737661
vt 0.656180 0.713951
vt 0.665271 0.742639
vt 0.653946 0.718150
vt 0.661792 0.748469
vt 0.650641 0.724359
vt 0.625000 0.750000
vt 0.625000 0.785262
vt 0.581814 0.786927
vt 0.581814 0.749626
vt 0.637500 0.699511
vt 0.633637 0.703525
vt 0.630153 0.707146
vt 0.626652 0.713264
vt 0.625000 0.714916
vt 0.581814 0.750298
vt 0.581814 0.713119
vt 0.658657 0.540704
vt 0.637500 0.550489
vt 0.633637 0.546475
vt 0.656180 0.536049
vt 0.630153 0.542854
vt 0.653946 0.531851
vt 0.626652 0.536736
vt 0.650642 0.525642
vt 0.625000 0.500000
vt 0.625000 0.535084
vt 0.581814 0.536881
vt 0.581814 0.499702
vt 0.669223 0.517857
vt 0.667146 0.512339
vt 0.665272 0.507361
vt 0.661792 0.501530
vt 0.625000 0.464738
vt 0.581814 0.500374
vt 0.581814 0.463074
vt 0.599237 0.710019
vt 0.599237 0.539981
vt 0.581814 0.711864
vt 0.581814 0.538136
vt 0.830777 0.732143
vt 0.841343 0.709296
vt 0.843820 0.713951
vt 0.832854 0.737661
vt 0.846054 0.718150
vt 0.834729 0.742639
vt 0.849359 0.724359
vt 0.838208 0.748470
vt 0.625000 0.964738
vt 0.625000 1.000000
vt 0.581814 1.000374
vt 0.581814 0.963074
vt 0.862500 0.699511
vt 0.866363 0.703525
vt 0.869847 0.707146
vt 0.873348 0.713264
vt 0.625000 0.000000
vt 0.625000 0.035084
vt 0.581814 0.036881
vt 0.581814 -0.000298
vt 0.836216 0.750000
vt 0.663784 0.750000
vt 0.625000 0.788784
vt 0.625000 0.961216
vt 0.581814 0.962171
vt 0.581814 0.787829
vt 0.841343 0.540704
vt 0.830777 0.517857
vt 0.832854 0.512339
vt 0.843820 0.536049
vt 0.834729 0.507361
vt 0.846054 0.531850
vt 0.838208 0.501530
vt 0.849358 0.525642
vt 0.625000 0.250000
vt 0.625000 0.285262
vt 0.581814 0.286926
vt 0.581814 0.249626
vt 0.862500 0.550489
vt 0.866363 0.546475
vt 0.869847 0.542854
vt 0.873348 0.536736
vt 0.625000 0.214916
vt 0.581814 0.250298
vt 0.581814 0.213119
vt 0.663784 0.500000
vt 0.836216 0.500000
vt 0.625000 0.288784
vt 0.625000 0.461216
vt 0.581814 0.462171
vt 0.581814 0.287829
vt 0.581814 0.038136
vt 0.581814 0.211864
vt 0.625000 0.039981
vt 0.625000 0.210019
vt 0.875000 0.539981
vt 0.875000 0.710019
s 0
usemtl Material
f 7/1/1 56/2/1 62/3/1 9/4/1
f 10/5/2 12/6/2 11/7/2 4/8/2 6/9/2 5/10/2 1/11/2 3/12/2 2/13/2 7/14/2 9/15/2 8/16/2
f 2/17/3 14/18/3 56/2/3 7/1/3
f 5/10/4 32/19/4 20/20/4 1/21/4
f 14/18/5 2/17/5 3/22/5 26/23/5
f 44/24/6 6/25/6 4/26/6 38/27/6
f 11/28/7 68/29/7 38/27/7 4/26/7
f 32/19/8 5/10/8 6/25/8 44/24/8
f 68/29/9 11/28/9 12/30/9 80/31/9
f 8/32/10 50/33/10 74/34/10 10/35/10
f 26/23/11 3/22/11 1/21/11 20/20/11
f 80/31/12 12/30/12 10/35/12 74/34/12
f 9/36/13 62/37/13 50/33/13 8/32/13
f 25/38/14 13/39/14 15/40/14 27/41/14
f 27/41/15 15/40/15 16/42/15 28/43/15
f 28/43/16 16/42/16 17/44/16 29/45/16
f 29/46/17 17/47/17 18/48/17 30/49/17
f 30/49/18 18/48/18 14/18/18 26/23/18
f 19/50/19 25/38/19 27/41/19 21/51/19
f 21/51/20 27/41/20 28/43/20 22/52/20
f 22/52/21 28/43/21 29/45/21 23/53/21
f 23/54/22 29/46/22 30/55/22 24/56/22
f 24/56/23 30/55/23 26/23/23 20/20/23
f 43/57/24 31/58/24 33/59/24 45/60/24
f 45/60/25 33/59/25 34/61/25 46/62/25
f 46/62/26 34/61/26 35/63/26 47/64/26
f 47/65/27 35/66/27 36/67/27 48/68/27
f 48/68/28 36/67/28 32/19/28 44/24/28
f 37/69/29 43/57/29 45/60/29 39/70/29
f 39/70/30 45/60/30 46/62/30 40/71/30
f 40/71/31 46/62/31 47/64/31 41/72/31
f 41/73/32 47/65/32 48/74/32 42/75/32
f 42/75/33 48/74/33 44/24/33 38/27/33
f 31/58/34 19/50/34 21/51/34 33/59/34
f 33/59/35 21/51/35 22/52/35 34/61/35
f 34/61/36 22/52/36 23/76/36 35/77/36
f 35/77/37 23/76/37 24/78/37 36/79/37
f 36/79/38 24/78/38 20/20/38 32/19/38
f 55/80/39 61/81/39 63/82/39 57/83/39
f 57/83/40 63/82/40 64/84/40 58/85/40
f 58/85/41 64/84/41 65/86/41 59/87/41
f 59/88/42 65/89/42 66/90/42 60/91/42
f 60/91/43 66/90/43 62/3/43 56/2/43
f 61/81/44 49/92/44 51/93/44 63/82/44
f 63/82/45 51/93/45 52/94/45 64/84/45
f 64/84/46 52/94/46 53/95/46 65/86/46
f 65/96/47 53/97/47 54/98/47 66/99/47
f 66/99/48 54/98/48 50/33/48 62/37/48
f 13/39/49 55/80/49 57/83/49 15/40/49
f 15/40/50 57/83/50 58/85/50 16/42/50
f 16/42/51 58/85/51 59/100/51 17/101/51
f 17/102/52 59/103/52 60/104/52 18/105/52
f 18/105/53 60/104/53 56/2/53 14/18/53
f 79/106/54 67/107/54 69/108/54 81/109/54
f 81/109/55 69/108/55 70/110/55 82/111/55
f 82/111/56 70/110/56 71/112/56 83/113/56
f 83/114/57 71/115/57 72/116/57 84/117/57
f 84/117/58 72/116/58 68/29/58 80/31/58
f 73/118/59 79/106/59 81/109/59 75/119/59
f 75/119/60 81/109/60 82/111/60 76/120/60
f 76/120/61 82/111/61 83/113/61 77/121/61
f 77/122/62 83/114/62 84/123/62 78/124/62
f 78/124/63 84/123/63 80/31/63 74/34/63
f 67/107/64 37/69/64 39/70/64 69/108/64
f 69/108/65 39/70/65 40/71/65 70/110/65
f 70/110/66 40/71/66 41/125/66 71/126/66
f 71/127/67 41/128/67 42/129/67 72/130/67
f 72/130/68 42/129/68 38/27/68 68/29/68
f 74/34/69 50/33/69 54/131/69 78/132/69
f 78/132/70 54/131/70 53/133/70 77/134/70
f 77/135/71 53/136/71 52/94/71 76/120/71
f 76/120/72 52/94/72 51/93/72 75/119/72
f 75/119/73 51/93/73 49/92/73 73/118/73
f 31/58/74 43/57/74 37/69/74 67/107/74 79/106/74 73/118/74 49/92/74 61/81/74 55/80/74 13/39/74 25/38/74 19/50/74
